<svg width="64" height="64" viewBox="0 0 64 64" fill="none" xmlns="http://www.w3.org/2000/svg">
<rect x="11" y="11" width="42" height="42" fill="#BDCCF1"/>
<path d="M11 42L23 29L36 38L53 22" stroke="white" stroke-width="3" stroke-miterlimit="10"/>
<path d="M11 46C13.2091 46 15 44.2091 15 42C15 39.7909 13.2091 38 11 38C8.79086 38 7 39.7909 7 42C7 44.2091 8.79086 46 11 46Z" fill="#2455CF"/>
<path d="M23 33C25.2091 33 27 31.2091 27 29C27 26.7909 25.2091 25 23 25C20.7909 25 19 26.7909 19 29C19 31.2091 20.7909 33 23 33Z" fill="#2455CF"/>
<path d="M36 42C38.2091 42 40 40.2091 40 38C40 35.7909 38.2091 34 36 34C33.7909 34 32 35.7909 32 38C32 40.2091 33.7909 42 36 42Z" fill="#2455CF"/>
<path d="M53 26C55.2091 26 57 24.2091 57 22C57 19.7909 55.2091 18 53 18C50.7909 18 49 19.7909 49 22C49 24.2091 50.7909 26 53 26Z" fill="#2455CF"/>
</svg>
