<svg width="24" height="24" viewBox="0 0 24 24" fill="none" xmlns="http://www.w3.org/2000/svg">
<g clip-path="url(#clip0_365_5473)">
<path d="M12.0002 0.280274C9.14338 0.279425 6.37999 1.29779 4.20691 3.15226C2.03384 5.00673 0.593645 7.57563 0.145306 10.397C-0.303032 13.2184 0.269897 16.1072 1.76107 18.544C3.25225 20.9807 5.56383 22.8055 8.28017 23.6903H8.56017C8.81561 23.7027 9.06611 23.6168 9.26017 23.4503C9.37692 23.3486 9.46974 23.2223 9.53198 23.0806C9.59422 22.9388 9.62433 22.785 9.62017 22.6303V22.4203C9.62017 22.2503 9.62017 22.0203 9.62017 21.3303C9.61213 21.2654 9.59117 21.2027 9.55854 21.1461C9.52591 21.0894 9.48226 21.0398 9.43017 21.0003C9.37326 20.9547 9.30707 20.9222 9.23624 20.9049C9.16542 20.8876 9.09167 20.886 9.02017 20.9003C6.33017 21.4803 5.76017 19.8003 5.73017 19.6903C5.39191 18.8 4.78792 18.0354 4.00017 17.5003L3.85017 17.3903C3.96825 17.3332 4.09952 17.3091 4.23017 17.3203C4.4794 17.3578 4.71493 17.4583 4.91443 17.6123C5.11393 17.7663 5.2708 17.9687 5.37017 18.2003C5.75702 18.8739 6.39006 19.3711 7.13608 19.5875C7.88211 19.8038 8.68297 19.7224 9.37017 19.3603C9.44443 19.3273 9.5101 19.2777 9.56212 19.2152C9.61414 19.1528 9.65111 19.0793 9.67017 19.0003C9.71072 18.5412 9.90853 18.1103 10.2302 17.7803C10.3043 17.7163 10.3581 17.632 10.3847 17.5378C10.4114 17.4436 10.4098 17.3436 10.3802 17.2503C10.3529 17.1568 10.2983 17.0736 10.2235 17.0113C10.1487 16.9489 10.057 16.9103 9.96017 16.9003C7.59017 16.6303 5.16017 15.8003 5.16017 11.7103C5.14291 10.6818 5.52253 9.68618 6.22017 8.93027C6.28323 8.86122 6.32521 8.77557 6.34116 8.68342C6.35711 8.59128 6.34635 8.4965 6.31017 8.41027C6.03322 7.63021 6.03676 6.77801 6.32017 6.00027C7.24361 6.16529 8.11041 6.56086 8.84017 7.15027C8.9009 7.19179 8.97036 7.21879 9.04319 7.2292C9.11601 7.2396 9.19025 7.23313 9.26017 7.21027C10.154 6.97189 11.0751 6.85088 12.0002 6.85027C12.9289 6.84587 13.8539 6.96696 14.7502 7.21027C14.8184 7.23304 14.8911 7.23947 14.9623 7.22905C15.0335 7.21863 15.1013 7.19165 15.1602 7.15027C15.889 6.55936 16.7562 6.16361 17.6802 6.00027C17.9549 6.76983 17.9549 7.61072 17.6802 8.38027C17.644 8.4672 17.6342 8.56285 17.652 8.65531C17.6698 8.74777 17.7143 8.83296 17.7802 8.90027C18.467 9.65015 18.8425 10.6335 18.8302 11.6503C18.8302 15.7503 16.4002 16.5703 14.0202 16.8303C13.9233 16.8403 13.8316 16.8789 13.7568 16.9413C13.682 17.0036 13.6275 17.0868 13.6002 17.1803C13.5713 17.2721 13.5702 17.3704 13.5969 17.4629C13.6235 17.5553 13.6769 17.6379 13.7502 17.7003C13.9714 17.9312 14.1403 18.207 14.2456 18.5089C14.3508 18.8109 14.3899 19.1319 14.3602 19.4503V22.6303C14.3579 22.7857 14.3899 22.9398 14.4539 23.0815C14.5178 23.2232 14.6121 23.3491 14.7302 23.4503C14.8791 23.5638 15.0529 23.6402 15.2372 23.6732C15.4216 23.7063 15.6111 23.695 15.7902 23.6403C18.4754 22.7265 20.7501 20.8911 22.2108 18.4597C23.6715 16.0283 24.2237 13.1581 23.7694 10.3582C23.3152 7.55842 21.8838 5.01002 19.7294 3.16515C17.5749 1.32027 14.8365 0.298207 12.0002 0.280274Z" fill="#5B88F8"/>
</g>
<defs>
<clipPath id="clip0_365_5473">
<rect width="24" height="24" fill="white"/>
</clipPath>
</defs>
</svg>
