<svg width="64" height="64" viewBox="0 0 64 64" fill="none" xmlns="http://www.w3.org/2000/svg">
<path fill-rule="evenodd" clip-rule="evenodd" d="M54.7 28H49.6C49.1 26 48.3 24.1 47.3 22.4L50.9 18.8C51.4 18.3 51.4 17.4 50.9 16.9L47.1 13.1C46.6 12.6 45.7 12.6 45.2 13.1L41.6 16.7C39.9 15.6 38 14.8 36 14.4V9.3C36 8.6 35.4 8 34.7 8H29.4C28.6 8 28 8.6 28 9.3V14.4C26 14.9 24.1 15.7 22.4 16.7L18.8 13.1C18.3 12.6 17.4 12.6 16.9 13.1L13.1 16.9C12.6 17.4 12.6 18.3 13.1 18.8L16.7 22.4C15.6 24.1 14.8 26 14.4 28H9.3C8.6 28 8 28.6 8 29.3V34.6C8 35.4 8.6 36 9.3 36H14.4C14.9 38 15.7 39.9 16.7 41.6L13.1 45.2C12.6 45.7 12.6 46.6 13.1 47.1L16.9 50.9C17.4 51.4 18.3 51.4 18.8 50.9L22.4 47.3C24.1 48.4 26 49.2 28 49.6H36C38 49.1 39.9 48.3 41.6 47.3L45.2 50.9C45.7 51.4 46.6 51.4 47.1 50.9L50.9 47.1C51.4 46.6 51.4 45.7 50.9 45.2L47.3 41.6C48.4 39.9 49.2 38 49.6 36H54.7C55.4 36 56 35.4 56 34.7V29.4C56 28.6 55.4 28 54.7 28Z" fill="#BDCCF1"/>
<path d="M34.8002 55L32.6002 53L29.2002 55L30.1002 56.5C30.3002 56.8 30.6002 57 31.0002 57H33.0002C33.4002 57 33.7002 56.8 33.9002 56.5L34.8002 55Z" fill="#2455CF"/>
<path d="M37 49H27V54C27 54.6 27.5 55 28 55H36C36.6 55 37 54.5 37 54V49Z" fill="#5B88F8"/>
<path d="M43.8001 32.8002C43.8001 26.1002 38.3001 20.7002 31.5001 21.0002C24.0001 21.3002 18.8001 28.6002 20.5001 35.9002C21.5001 40.1002 24.5001 41.4002 26.3001 45.6002C26.7001 46.5002 26.8001 48.1002 26.8001 49.0002H37.1001C37.1001 48.2002 37.2001 46.6002 37.5001 45.9002C39.7001 40.6002 43.8001 39.8002 43.8001 32.8002Z" fill="white"/>
<path d="M32.0002 29.2998L31.6002 36.3998L30.1002 34.4998H33.8002H36.3002L35.3002 36.3998L32.0002 42.2998L32.4002 35.5998L33.8002 37.4998H30.1002H27.7002L28.7002 35.5998L32.0002 29.2998Z" fill="#2455CF"/>
</svg>
