<svg width="24" height="24" viewBox="0 0 24 24" fill="none" xmlns="http://www.w3.org/2000/svg">
<g clip-path="url(#clip0_365_5472)">
<path d="M22.17 16.66H14.83C14.3447 16.66 13.8792 16.4672 13.536 16.124C13.1928 15.7808 13 15.3153 13 14.83C13 14.3447 13.1928 13.8792 13.536 13.536C13.8792 13.1928 14.3447 13 14.83 13H22.17C22.6553 13 23.1208 13.1928 23.464 13.536C23.8072 13.8792 24 14.3447 24 14.83C24 15.3153 23.8072 15.7808 23.464 16.124C23.1208 16.4672 22.6553 16.66 22.17 16.66Z" fill="#5B88F8"/>
<path d="M14.8301 11.0004C14.3448 11.0004 13.8793 10.8076 13.5361 10.4644C13.1929 10.1212 13.0001 9.65577 13.0001 9.17042V1.83042C12.9815 1.5794 13.0149 1.32724 13.0982 1.08971C13.1815 0.852178 13.3129 0.634383 13.4842 0.449941C13.6555 0.265499 13.8629 0.118375 14.0937 0.017768C14.3244 -0.0828389 14.5734 -0.134766 14.8251 -0.134766C15.0768 -0.134766 15.3258 -0.0828389 15.5566 0.017768C15.7873 0.118375 15.9948 0.265499 16.1661 0.449941C16.3374 0.634383 16.4687 0.852178 16.552 1.08971C16.6353 1.32724 16.6687 1.5794 16.6501 1.83042V9.17042C16.6501 9.65404 16.4587 10.118 16.1177 10.4609C15.7766 10.8038 15.3137 10.9978 14.8301 11.0004Z" fill="#5B88F8"/>
<path d="M9.17 11.0008H1.83C1.34465 11.0008 0.879186 10.808 0.535995 10.4648C0.192803 10.1216 0 9.65617 0 9.17082C0 8.68547 0.192803 8.22001 0.535995 7.87681C0.879186 7.53362 1.34465 7.34082 1.83 7.34082H9.17C9.65535 7.34082 10.1208 7.53362 10.464 7.87681C10.8072 8.22001 11 8.68547 11 9.17082C11 9.65617 10.8072 10.1216 10.464 10.4648C10.1208 10.808 9.65535 11.0008 9.17 11.0008Z" fill="#5B88F8"/>
<path d="M9.16996 24.0004C8.68461 24.0004 8.21915 23.8076 7.87596 23.4644C7.53276 23.1212 7.33996 22.6558 7.33996 22.1704V14.8304C7.32137 14.5794 7.35476 14.3272 7.43805 14.0897C7.52133 13.8522 7.65273 13.6344 7.82401 13.4499C7.9953 13.2655 8.20279 13.1184 8.43352 13.0178C8.66425 12.9172 8.91325 12.8652 9.16496 12.8652C9.41667 12.8652 9.66567 12.9172 9.8964 13.0178C10.1271 13.1184 10.3346 13.2655 10.5059 13.4499C10.6772 13.6344 10.8086 13.8522 10.8919 14.0897C10.9752 14.3272 11.0086 14.5794 10.99 14.8304V22.1704C10.99 22.654 10.7985 23.118 10.4575 23.4609C10.1165 23.8038 9.65357 23.9978 9.16996 24.0004Z" fill="#5B88F8"/>
<path d="M2.22 17.48C1.63295 17.48 1.06979 17.2475 0.653748 16.8333C0.237703 16.4191 0.00264438 15.857 0 15.27C0 14.668 0.23916 14.0906 0.664868 13.6649C1.09058 13.2392 1.66796 13 2.27 13H3.75C3.94452 13.0026 4.13019 13.0818 4.26681 13.2202C4.40343 13.3587 4.48002 13.5455 4.48 13.74V15.22C4.48 15.5168 4.42154 15.8107 4.30797 16.0849C4.19439 16.3591 4.02792 16.6082 3.81806 16.8181C3.6082 17.0279 3.35906 17.1944 3.08486 17.308C2.81067 17.4215 2.51679 17.48 2.22 17.48Z" fill="#5B88F8"/>
<path d="M10.27 4.48002H8.78004C8.18065 4.48002 7.60581 4.24192 7.18198 3.81808C6.75815 3.39425 6.52004 2.81941 6.52004 2.22002C6.51872 1.92812 6.57524 1.63884 6.68633 1.3689C6.79743 1.09896 6.9609 0.853704 7.16731 0.647294C7.37372 0.440884 7.61898 0.27741 7.88892 0.166314C8.15886 0.0552171 8.44814 -0.00130112 8.74004 2.27295e-05C9.34035 0.00266728 9.91517 0.242994 10.3387 0.668416C10.7623 1.09384 11 1.66971 11 2.27002V3.75002C11 3.94363 10.9231 4.12931 10.7862 4.26621C10.6493 4.40311 10.4637 4.48002 10.27 4.48002Z" fill="#5B88F8"/>
<path d="M15.26 24.0005C14.6597 23.9979 14.0849 23.7575 13.6613 23.3321C13.2378 22.9067 13 22.3308 13 21.7305V20.2505C13 20.0569 13.0769 19.8712 13.2138 19.7343C13.3507 19.5974 13.5364 19.5205 13.73 19.5205H15.22C15.8194 19.5205 16.3942 19.7586 16.8181 20.1824C17.2419 20.6063 17.48 21.1811 17.48 21.7805C17.4813 22.0724 17.4248 22.3617 17.3137 22.6316C17.2026 22.9016 17.0391 23.1468 16.8327 23.3532C16.6263 23.5596 16.3811 23.7231 16.1111 23.8342C15.8412 23.9453 15.5519 24.0018 15.26 24.0005Z" fill="#5B88F8"/>
<path d="M21.73 11.0005H20.25C20.0555 10.9979 19.8698 10.9188 19.7332 10.7803C19.5966 10.6418 19.52 10.455 19.52 10.2605V8.78051C19.52 8.18112 19.7581 7.60628 20.182 7.18245C20.6058 6.75861 21.1806 6.52051 21.78 6.52051C22.3671 6.5205 22.9302 6.75302 23.3463 7.16719C23.7623 7.58136 23.9974 8.14346 24 8.73051C24 9.33255 23.7609 9.90993 23.3352 10.3356C22.9094 10.7613 22.3321 11.0005 21.73 11.0005Z" fill="#5B88F8"/>
</g>
<defs>
<clipPath id="clip0_365_5472">
<rect width="24" height="24" fill="white"/>
</clipPath>
</defs>
</svg>
