<svg width="24" height="24" viewBox="0 0 24 24" fill="none" xmlns="http://www.w3.org/2000/svg">
<path d="M20.06 3.5H3.94C2.89987 3.51549 1.90669 3.93557 1.17113 4.67113C0.435567 5.40669 0.0154883 6.39987 0 7.44L0 16.56C0.0154883 17.6001 0.435567 18.5933 1.17113 19.3289C1.90669 20.0644 2.89987 20.4845 3.94 20.5H20.06C21.1001 20.4845 22.0933 20.0644 22.8289 19.3289C23.5644 18.5933 23.9845 17.6001 24 16.56V7.44C23.9845 6.39987 23.5644 5.40669 22.8289 4.67113C22.0933 3.93557 21.1001 3.51549 20.06 3.5ZM16.54 12L9.77 16.36C9.69088 16.4149 9.59624 16.4429 9.5 16.44C9.41624 16.4404 9.33371 16.4198 9.26 16.38C9.18178 16.336 9.11656 16.2722 9.07091 16.1949C9.02526 16.1177 9.0008 16.0297 9 15.94V7.28C9.0008 7.19027 9.02526 7.10234 9.07091 7.02508C9.11656 6.94783 9.18178 6.88398 9.26 6.84C9.33682 6.79318 9.42504 6.76842 9.515 6.76842C9.60496 6.76842 9.69318 6.79318 9.77 6.84L16.54 11.17C16.6102 11.2153 16.6679 11.2775 16.7078 11.3509C16.7478 11.4243 16.7687 11.5065 16.7687 11.59C16.7687 11.6735 16.7478 11.7557 16.7078 11.8291C16.6679 11.9025 16.6102 11.9647 16.54 12.01V12Z" fill="#5B88F8"/>
</svg>
