<svg width="64" height="64" viewBox="0 0 64 64" fill="none" xmlns="http://www.w3.org/2000/svg">
<circle cx="32" cy="32" r="24" fill="#BDCCF1"/>
<path d="M44.7125 37.825H35.5375C34.9308 37.825 34.349 37.584 33.92 37.155C33.491 36.726 33.25 36.1442 33.25 35.5375C33.25 34.9308 33.491 34.349 33.92 33.92C34.349 33.491 34.9308 33.25 35.5375 33.25H44.7125C45.3192 33.25 45.901 33.491 46.33 33.92C46.759 34.349 47 34.9308 47 35.5375C47 36.1442 46.759 36.726 46.33 37.155C45.901 37.584 45.3192 37.825 44.7125 37.825Z" fill="#2455CF"/>
<path d="M28.4627 47C27.856 47 27.2742 46.759 26.8452 46.33C26.4162 45.9011 26.1752 45.3192 26.1752 44.7125V35.5375C26.152 35.2238 26.1937 34.9086 26.2978 34.6116C26.4019 34.3147 26.5662 34.0425 26.7803 33.8119C26.9944 33.5814 27.2537 33.3975 27.5421 33.2717C27.8306 33.146 28.1418 33.0811 28.4564 33.0811C28.7711 33.0811 29.0823 33.146 29.3707 33.2717C29.6592 33.3975 29.9185 33.5814 30.1326 33.8119C30.3467 34.0425 30.511 34.3147 30.6151 34.6116C30.7192 34.9086 30.7609 35.2238 30.7377 35.5375V44.7125C30.7377 45.3171 30.4984 45.897 30.0721 46.3256C29.6458 46.7543 29.0672 46.9967 28.4627 47Z" fill="#2455CF"/>
<path d="M19.775 38.85C19.0412 38.85 18.3372 38.5594 17.8172 38.0416C17.2971 37.5239 17.0033 36.8213 17 36.0875C17 35.3349 17.299 34.6132 17.8311 34.0811C18.3632 33.5489 19.0849 33.25 19.8375 33.25H21.6875C21.9307 33.2533 22.1627 33.3522 22.3335 33.5253C22.5043 33.6984 22.6 33.9318 22.6 34.175V36.025C22.6 36.396 22.5269 36.7633 22.385 37.1061C22.243 37.4488 22.0349 37.7603 21.7726 38.0226C21.5103 38.2849 21.1988 38.493 20.8561 38.635C20.5133 38.7769 20.146 38.85 19.775 38.85Z" fill="#2455CF"/>
<path d="M36.075 47.0004C35.3246 46.9971 34.6061 46.6967 34.0767 46.1649C33.5472 45.6331 33.25 44.9133 33.25 44.1629V42.3129C33.25 42.0709 33.3461 41.8388 33.5173 41.6677C33.6884 41.4965 33.9205 41.4004 34.1625 41.4004H36.025C36.7742 41.4004 37.4928 41.698 38.0226 42.2278C38.5524 42.7576 38.85 43.4762 38.85 44.2254C38.8517 44.5903 38.781 44.9519 38.6421 45.2893C38.5033 45.6267 38.2989 45.9333 38.0409 46.1913C37.7829 46.4493 37.4763 46.6537 37.1389 46.7925C36.8015 46.9314 36.4399 47.002 36.075 47.0004Z" fill="#2455CF"/>
<path d="M35.5374 30.75C34.9307 30.75 34.3489 30.509 33.9199 30.08C33.4909 29.6511 33.2499 29.0692 33.2499 28.4625V19.2875C33.2267 18.9738 33.2684 18.6586 33.3725 18.3616C33.4766 18.0647 33.6409 17.7925 33.855 17.5619C34.0691 17.3314 34.3284 17.1475 34.6169 17.0217C34.9053 16.896 35.2165 16.8311 35.5312 16.8311C35.8458 16.8311 36.157 16.896 36.4455 17.0217C36.7339 17.1475 36.9932 17.3314 37.2073 17.5619C37.4214 17.7925 37.5857 18.0647 37.6898 18.3616C37.7939 18.6586 37.8356 18.9738 37.8124 19.2875V28.4625C37.8124 29.0671 37.5731 29.647 37.1468 30.0756C36.7205 30.5043 36.1419 30.7467 35.5374 30.75Z" fill="white"/>
<path d="M28.4625 30.7498H19.2875C18.6808 30.7498 18.099 30.5088 17.67 30.0798C17.241 29.6508 17 29.069 17 28.4623C17 27.8556 17.241 27.2738 17.67 26.8448C18.099 26.4158 18.6808 26.1748 19.2875 26.1748H28.4625C29.0692 26.1748 29.651 26.4158 30.08 26.8448C30.509 27.2738 30.75 27.8556 30.75 28.4623C30.75 29.069 30.509 29.6508 30.08 30.0798C29.651 30.5088 29.0692 30.7498 28.4625 30.7498Z" fill="white"/>
<path d="M29.8374 22.6H27.9749C27.2257 22.6 26.5071 22.3024 25.9774 21.7726C25.4476 21.2428 25.1499 20.5243 25.1499 19.775C25.1483 19.4101 25.2189 19.0486 25.3578 18.7111C25.4967 18.3737 25.701 18.0671 25.959 17.8091C26.217 17.5511 26.5236 17.3468 26.861 17.2079C27.1985 17.069 27.56 16.9984 27.9249 17C28.6753 17.0033 29.3938 17.3037 29.9233 17.8355C30.4527 18.3673 30.7499 19.0871 30.7499 19.8375V21.6875C30.7499 21.9295 30.6538 22.1616 30.4827 22.3328C30.3115 22.5039 30.0794 22.6 29.8374 22.6Z" fill="white"/>
<path d="M44.1624 30.7504H42.3124C42.0692 30.7471 41.8372 30.6482 41.6664 30.4751C41.4956 30.302 41.3999 30.0686 41.3999 29.8254V27.9754C41.3999 27.2262 41.6975 26.5076 42.2273 25.9778C42.7571 25.448 43.4757 25.1504 44.2249 25.1504C44.9587 25.1504 45.6627 25.441 46.1827 25.9587C46.7028 26.4765 46.9966 27.1791 46.9999 27.9129C46.9999 28.6654 46.701 29.3872 46.1688 29.9193C45.6367 30.4514 44.915 30.7504 44.1624 30.7504Z" fill="white"/>
</svg>
