<svg width="64" height="64" viewBox="0 0 64 64" fill="none" xmlns="http://www.w3.org/2000/svg">
<path d="M6 13V46H29C29 47.1 30.3 48 32 48C33.7 48 35 47.1 35 46H58V13H6Z" fill="#5B88F8"/>
<path d="M36 10C34.4 10 33.1 10.9 32.4 12.2C32.2 12.5 31.7 12.5 31.5 12.2C30.8 10.9 29.5 10 27.9 10H9V43H28C29.6 43 30.9 43.9 31.6 45.2C31.8 45.5 32.3 45.5 32.5 45.2C33.2 43.9 34.5 43 36.1 43H55.1V10H36Z" fill="#BDCCF0"/>
<path d="M16 18H26" stroke="white" stroke-width="1.9806" stroke-miterlimit="10" stroke-linecap="square" stroke-linejoin="round"/>
<path d="M16 24H26" stroke="white" stroke-width="1.9806" stroke-miterlimit="10" stroke-linecap="square" stroke-linejoin="round"/>
<path d="M16 30H26" stroke="white" stroke-width="1.9806" stroke-miterlimit="10" stroke-linecap="square" stroke-linejoin="round"/>
<path d="M16 36H22" stroke="white" stroke-width="1.9806" stroke-miterlimit="10" stroke-linecap="square" stroke-linejoin="round"/>
<path d="M38 18H48" stroke="white" stroke-width="1.9806" stroke-miterlimit="10" stroke-linecap="square" stroke-linejoin="round"/>
<path d="M38 24H48" stroke="white" stroke-width="1.9806" stroke-miterlimit="10" stroke-linecap="square" stroke-linejoin="round"/>
<path d="M38 30H44" stroke="white" stroke-width="1.9806" stroke-miterlimit="10" stroke-linecap="square" stroke-linejoin="round"/>
<path d="M57 51.3002L50.3 45.6002L54.3 42.9002L37 37.7002L45.3 53.7002L47.3 49.2002L54 54.9002L57 51.3002Z" fill="#2455CF"/>
</svg>
