<svg width="64" height="64" viewBox="0 0 64 64" fill="none" xmlns="http://www.w3.org/2000/svg">
<path d="M32 8V14.3C41.8 14.3 49.7 22.3 49.7 32H56C56 18.7 45.3 8 32 8Z" fill="#5B88F8"/>
<path d="M49.7 32C49.7 41.8 41.7 49.7 32 49.7C22.3 49.7 14.3 41.7 14.3 32C14.3 27.1 16.3 22.7 19.5 19.5L15 15C10.7 19.3 8 25.3 8 32C8 45.3 18.7 56 32 56C45.3 56 56 45.3 56 32H49.7Z" fill="#BDCCF0"/>
<path d="M19.5 19.5C22.7 16.3 27.1 14.3 32 14.3V8C25.4 8 19.4 10.7 15 15L19.5 19.5Z" fill="#2455CF"/>
<path d="M43.4996 32.7L38.5996 37.6C34.8996 41.3 28.9996 41.3 25.2996 37.6L20.3996 32.7C19.9996 32.3 19.9996 31.7 20.3996 31.3L25.2996 26.4C28.9996 22.7 34.8996 22.7 38.5996 26.4L43.4996 31.3C43.8996 31.7 43.8996 32.3 43.4996 32.7Z" fill="#BDCCF0"/>
<path d="M33.2003 31.0003C32.5003 30.1003 32.6003 28.9003 33.2003 28.0003C33.4003 27.8003 33.2003 27.4003 32.9003 27.4003C31.2003 27.0003 29.3003 27.6003 28.1003 29.2003C26.8003 30.9003 26.9003 33.3003 28.2003 35.0003C30.0003 37.3003 33.3003 37.4003 35.3003 35.4003C36.1003 34.6003 36.6003 33.5003 36.7003 32.4003C36.7003 32.1003 36.4003 31.9003 36.2003 32.0003C35.1003 32.3003 33.9003 31.9003 33.2003 31.0003Z" fill="#2455CF"/>
</svg>
