<svg width="64" height="64" viewBox="0 0 64 64" fill="none" xmlns="http://www.w3.org/2000/svg">
<path d="M14 9H10.9048C8.8 9 7.19048 10.6972 7.19048 12.9167V25.9722C7.19048 29.6278 4.46667 32.5 1 32.5C4.46667 32.5 7.19048 35.3722 7.19048 39.0278V52.0833C7.19048 54.3028 8.8 56 10.9048 56H14" stroke="#BDCCF1" stroke-width="3" stroke-miterlimit="10"/>
<path d="M50 9H53.0952C55.2 9 56.8095 10.6972 56.8095 12.9167V25.9722C56.8095 29.6278 59.5333 32.5 63 32.5C59.5333 32.5 56.8095 35.3722 56.8095 39.0278V52.0833C56.8095 54.3028 55.2 56 53.0952 56H50" stroke="#BDCCF1" stroke-width="3" stroke-miterlimit="10"/>
<path d="M32.0564 16C27.9971 15.9988 24.0705 17.4343 20.9826 20.0483C17.8948 22.6622 15.8484 26.2833 15.2113 30.2602C14.5743 34.2372 15.3884 38.3091 17.5072 41.7438C19.6261 45.1786 22.9108 47.7508 26.7705 48.9979H27.1684C27.5314 49.0155 27.8873 48.8944 28.1631 48.6596C28.3289 48.5163 28.4608 48.3383 28.5493 48.1385C28.6377 47.9387 28.6805 47.7219 28.6746 47.5038V47.2078C28.6746 46.9681 28.6746 46.6439 28.6746 45.6713C28.6632 45.5799 28.6334 45.4916 28.587 45.4117C28.5406 45.3318 28.4786 45.2619 28.4046 45.2062C28.3237 45.142 28.2297 45.0961 28.129 45.0717C28.0284 45.0474 27.9236 45.0452 27.822 45.0652C23.9997 45.8828 23.1897 43.5147 23.1471 43.3597C22.6665 42.1048 21.8082 41.0271 20.6889 40.2727L20.4757 40.1177C20.6435 40.0372 20.83 40.0032 21.0157 40.019C21.3698 40.0718 21.7045 40.2135 21.988 40.4306C22.2715 40.6476 22.4944 40.9329 22.6356 41.2594C23.1853 42.2089 24.0848 42.9098 25.1448 43.2148C26.2049 43.5197 27.3429 43.4049 28.3194 42.8945C28.4249 42.848 28.5182 42.778 28.5921 42.69C28.666 42.6021 28.7186 42.4984 28.7456 42.3871C28.8032 41.74 29.0843 41.1325 29.5414 40.6674C29.6467 40.5772 29.7231 40.4584 29.761 40.3256C29.7989 40.1928 29.7966 40.0519 29.7545 39.9203C29.7157 39.7886 29.6382 39.6713 29.5319 39.5834C29.4256 39.4955 29.2953 39.4411 29.1577 39.427C25.7901 39.0464 22.3372 37.8764 22.3372 32.1113C22.3127 30.6616 22.8521 29.2582 23.8434 28.1927C23.933 28.0954 23.9926 27.9747 24.0153 27.8448C24.038 27.7149 24.0227 27.5813 23.9713 27.4598C23.5777 26.3602 23.5828 25.159 23.9855 24.0627C25.2976 24.2953 26.5293 24.8529 27.5663 25.6837C27.6525 25.7422 27.7512 25.7803 27.8547 25.795C27.9582 25.8096 28.0637 25.8005 28.1631 25.7683C29.4332 25.4323 30.7419 25.2617 32.0564 25.2608C33.3761 25.2546 34.6905 25.4253 35.964 25.7683C36.061 25.8004 36.1643 25.8094 36.2655 25.7948C36.3667 25.7801 36.463 25.742 36.5466 25.6837C37.5823 24.8508 38.8145 24.2929 40.1274 24.0627C40.5177 25.1475 40.5177 26.3327 40.1274 27.4175C40.076 27.54 40.0621 27.6748 40.0873 27.8052C40.1126 27.9355 40.176 28.0556 40.2695 28.1504C41.2454 29.2074 41.7789 30.5935 41.7615 32.0267C41.7615 37.806 38.3086 38.9618 34.9267 39.3283C34.7891 39.3424 34.6588 39.3969 34.5525 39.4847C34.4462 39.5726 34.3688 39.6899 34.33 39.8216C34.289 39.9511 34.2873 40.0896 34.3253 40.22C34.3632 40.3503 34.4389 40.4667 34.5431 40.5546C34.8574 40.8801 35.0975 41.2688 35.247 41.6944C35.3966 42.12 35.4521 42.5726 35.4099 43.0214V47.5038C35.4067 47.7229 35.4521 47.94 35.543 48.1398C35.6339 48.3395 35.7679 48.517 35.9356 48.6596C36.1472 48.8196 36.3942 48.9273 36.6561 48.9739C36.918 49.0205 37.1873 49.0045 37.4418 48.9274C41.2574 47.6394 44.4896 45.0523 46.5652 41.6251C48.6407 38.1978 49.4253 34.1521 48.7799 30.2056C48.1344 26.259 46.1006 22.6669 43.0392 20.0664C39.9778 17.4659 36.0868 16.0253 32.0564 16Z" fill="#2455CF"/>
</svg>
