<svg width="64" height="64" viewBox="0 0 64 64" fill="none" xmlns="http://www.w3.org/2000/svg">
<path d="M30.0002 55.2252L8.6002 42.8252C7.9002 42.4252 7.9002 41.4252 8.6002 41.0252L29.9002 28.7252C31.2002 28.0252 32.7002 28.0252 34.0002 28.7252L55.4002 41.1252C56.1002 41.5252 56.1002 42.5252 55.4002 42.9252L34.1002 55.2252C32.9002 55.9252 31.3002 55.9252 30.0002 55.2252Z" fill="#5B88F8"/>
<path fill-rule="evenodd" clip-rule="evenodd" d="M42.5004 46.2252L40.5004 45.0252C41.1004 44.4252 41.5004 43.8252 41.7004 43.2252H44.6004C45.0004 43.2252 45.3004 43.0252 45.3004 42.8252V41.1252C45.3004 40.9252 45.0004 40.7252 44.6004 40.7252H41.7004C41.5004 40.1252 41.1004 39.5252 40.4004 38.9252L42.4004 37.8252C42.7004 37.6252 42.7004 37.4252 42.4004 37.2252L40.3004 36.0252C40.0004 35.8252 39.6004 35.8252 39.3004 36.0252L37.3004 37.1252C36.3004 36.7252 35.2004 36.5252 34.2004 36.4252V34.7252C34.2004 34.5252 33.9004 34.3252 33.5004 34.3252H30.6004C30.2004 34.3252 29.9004 34.5252 29.9004 34.7252V36.4252C28.9004 36.5252 27.8004 36.8252 26.8004 37.1252L24.8004 35.9252C24.5004 35.7252 24.1004 35.7252 23.8004 35.9252L21.7004 37.1252C21.4004 37.3252 21.4004 37.5252 21.7004 37.7252L23.7004 38.9252C23.1004 39.5252 22.7004 40.1252 22.5004 40.7252H19.6004C19.2004 40.7252 18.9004 40.9252 18.9004 41.1252V42.8252C18.9004 43.0252 19.2004 43.2252 19.6004 43.2252H22.5004C22.7004 43.8252 23.1004 44.4252 23.8004 45.0252L21.8004 46.1252C21.5004 46.3252 21.5004 46.5252 21.8004 46.7252L23.9004 47.9252C24.2004 48.1252 24.6004 48.1252 24.9004 47.9252L26.9004 46.8252C27.9004 47.2252 29.0004 47.4252 30.0004 47.5252V49.2252C30.0004 49.4252 30.3004 49.6252 30.7004 49.6252H33.6004C34.0004 49.6252 34.3004 49.4252 34.3004 49.2252V47.5252C35.3004 47.4252 36.4004 47.1252 37.4004 46.8252L39.4004 48.0252C39.7004 48.2252 40.1004 48.2252 40.4004 48.0252L42.5004 46.8252C42.8004 46.6252 42.8004 46.4252 42.5004 46.2252ZM29.2004 43.6252C27.6004 42.7252 27.7004 41.2252 29.2004 40.3252C30.8004 39.4252 33.4004 39.4252 34.9004 40.3252C36.4004 41.2252 36.4004 42.7252 34.9004 43.6252C33.2004 44.5252 30.8004 44.5252 29.2004 43.6252Z" fill="#2455CF"/>
<path d="M30.0002 34.925L8.6002 22.625C7.9002 22.225 7.9002 21.225 8.6002 20.825L29.9002 8.525C31.2002 7.825 32.7002 7.825 34.0002 8.525L55.4002 20.925C56.1002 21.325 56.1002 22.325 55.4002 22.725L34.1002 34.925C32.9002 35.725 31.3002 35.725 30.0002 34.925Z" fill="#BDCCF0"/>
<path d="M55 28.0254C55.5523 28.0254 56 27.5777 56 27.0254C56 26.4731 55.5523 26.0254 55 26.0254C54.4477 26.0254 54 26.4731 54 27.0254C54 27.5777 54.4477 28.0254 55 28.0254Z" fill="#BDCCF0"/>
<path d="M55 38.0254C55.5523 38.0254 56 37.5777 56 37.0254C56 36.4731 55.5523 36.0254 55 36.0254C54.4477 36.0254 54 36.4731 54 37.0254C54 37.5777 54.4477 38.0254 55 38.0254Z" fill="#BDCCF0"/>
<path d="M55 33.0254C55.5523 33.0254 56 32.5777 56 32.0254C56 31.4731 55.5523 31.0254 55 31.0254C54.4477 31.0254 54 31.4731 54 32.0254C54 32.5777 54.4477 33.0254 55 33.0254Z" fill="#BDCCF0"/>
<path d="M9 28.0254C9.55228 28.0254 10 27.5777 10 27.0254C10 26.4731 9.55228 26.0254 9 26.0254C8.44772 26.0254 8 26.4731 8 27.0254C8 27.5777 8.44772 28.0254 9 28.0254Z" fill="#BDCCF0"/>
<path d="M9 38.0254C9.55228 38.0254 10 37.5777 10 37.0254C10 36.4731 9.55228 36.0254 9 36.0254C8.44772 36.0254 8 36.4731 8 37.0254C8 37.5777 8.44772 38.0254 9 38.0254Z" fill="#BDCCF0"/>
<path d="M9 33.0254C9.55228 33.0254 10 32.5777 10 32.0254C10 31.4731 9.55228 31.0254 9 31.0254C8.44772 31.0254 8 31.4731 8 32.0254C8 32.5777 8.44772 33.0254 9 33.0254Z" fill="#BDCCF0"/>
</svg>
