<svg width="32" height="32" viewBox="0 0 32 32" fill="none" xmlns="http://www.w3.org/2000/svg">
<path fill-rule="evenodd" clip-rule="evenodd" d="M30.6669 8.66634L23.3335 1.33301H23.0002V8.99967H30.6669V8.66634ZM4.00021 1.33301H21.0002V9.99967V10.9997H22.0002H30.6669V30.6663H14.0002L19.3335 25.333L12.6669 18.6663H4.00021V1.33301ZM12.7812 25.333L9.72406 22.2758L11.6097 20.3902L15.6097 24.3902L16.5525 25.333L15.6097 26.2758L11.6097 30.2758L9.72406 28.3902L12.7812 25.333ZM5.72406 20.3902L1.72406 24.3902L0.78125 25.333L1.72406 26.2758L5.72406 30.2758L7.60967 28.3902L4.55249 25.333L7.60967 22.2758L5.72406 20.3902Z" fill="#5B88F8"/>
</svg>
