<svg width="64" height="64" viewBox="0 0 64 64" fill="none" xmlns="http://www.w3.org/2000/svg">
<path d="M32 19.3477C33.9452 19.3477 35.522 17.7709 35.522 15.8257C35.522 13.8806 33.9452 12.3037 32 12.3037C30.0549 12.3037 28.478 13.8806 28.478 15.8257C28.478 17.7709 30.0549 19.3477 32 19.3477Z" fill="white"/>
<path fill-rule="evenodd" clip-rule="evenodd" d="M39.556 34.667H37.846C37.694 33.999 37.429 33.375 37.074 32.812L38.286 31.6C38.46 31.426 38.46 31.145 38.286 30.971L37.029 29.714C36.855 29.54 36.574 29.54 36.4 29.714L35.188 30.926C34.625 30.571 34.001 30.307 33.333 30.154V28.444C33.333 28.199 33.134 28 32.889 28H31.111C30.866 28 30.667 28.199 30.667 28.444V30.154C29.999 30.306 29.375 30.571 28.812 30.926L27.6 29.715C27.426 29.541 27.145 29.541 26.971 29.715L25.714 30.972C25.54 31.146 25.54 31.427 25.714 31.601L26.926 32.813C26.571 33.376 26.307 34 26.154 34.668H24.444C24.199 34.668 24 34.867 24 35.112V36.89C24 37.135 24.199 37.334 24.444 37.334H26.154C26.306 38.002 26.571 38.626 26.926 39.189L25.715 40.4C25.541 40.574 25.541 40.855 25.715 41.029L26.972 42.286C27.146 42.46 27.427 42.46 27.601 42.286L28.813 41.074C29.376 41.429 30 41.693 30.668 41.846V43.556C30.668 43.801 30.867 44 31.112 44H32.89C33.135 44 33.334 43.801 33.334 43.556V41.846C34.002 41.694 34.626 41.429 35.189 41.074L36.401 42.286C36.575 42.46 36.856 42.46 37.03 42.286L38.287 41.029C38.461 40.855 38.461 40.574 38.287 40.4L37.075 39.188C37.43 38.625 37.694 38.001 37.847 37.333H39.557C39.802 37.333 40.001 37.134 40.001 36.889V35.111C40 34.866 39.801 34.667 39.556 34.667ZM32 37.995C30.898 37.995 30.005 37.102 30.005 36C30.005 34.898 30.898 34.005 32 34.005C33.102 34.005 33.995 34.898 33.995 36C33.995 37.102 33.102 37.995 32 37.995Z" fill="#5B88F8"/>
<path d="M32 8C27.029 8 23 12.029 23 17C23 21.971 27.029 26 32 26C36.971 26 41 21.971 41 17C41 12.029 36.971 8 32 8Z" fill="#BDCCF1"/>
<path d="M31.9997 25.9995C34.2387 25.9995 36.2857 25.1795 37.8607 23.8265C37.2567 21.4425 34.8647 20.5215 31.9997 20.5215C29.1347 20.5215 26.7427 21.4425 26.1387 23.8265C27.7137 25.1795 29.7607 25.9995 31.9997 25.9995Z" fill="#2455CF"/>
<path d="M32 19.3477C33.9452 19.3477 35.522 17.7709 35.522 15.8257C35.522 13.8806 33.9452 12.3037 32 12.3037C30.0549 12.3037 28.478 13.8806 28.478 15.8257C28.478 17.7709 30.0549 19.3477 32 19.3477Z" fill="white"/>
<path d="M16 49.3477C17.9452 49.3477 19.522 47.7709 19.522 45.8257C19.522 43.8806 17.9452 42.3037 16 42.3037C14.0549 42.3037 12.478 43.8806 12.478 45.8257C12.478 47.7709 14.0549 49.3477 16 49.3477Z" fill="white"/>
<path d="M16 38C11.029 38 7 42.029 7 47C7 51.971 11.029 56 16 56C20.971 56 25 51.971 25 47C25 42.029 20.971 38 16 38Z" fill="#BDCCF1"/>
<path d="M15.9997 55.9995C18.2387 55.9995 20.2857 55.1795 21.8607 53.8265C21.2567 51.4425 18.8647 50.5215 15.9997 50.5215C13.1347 50.5215 10.7427 51.4425 10.1387 53.8265C11.7137 55.1795 13.7607 55.9995 15.9997 55.9995Z" fill="#2455CF"/>
<path d="M16 49.3477C17.9452 49.3477 19.522 47.7709 19.522 45.8257C19.522 43.8806 17.9452 42.3037 16 42.3037C14.0549 42.3037 12.478 43.8806 12.478 45.8257C12.478 47.7709 14.0549 49.3477 16 49.3477Z" fill="white"/>
<path d="M48 49.3477C49.9452 49.3477 51.522 47.7709 51.522 45.8257C51.522 43.8806 49.9452 42.3037 48 42.3037C46.0549 42.3037 44.478 43.8806 44.478 45.8257C44.478 47.7709 46.0549 49.3477 48 49.3477Z" fill="white"/>
<path d="M48 38C43.029 38 39 42.029 39 47C39 51.971 43.029 56 48 56C52.971 56 57 51.971 57 47C57 42.029 52.971 38 48 38Z" fill="#BDCCF1"/>
<path d="M47.9997 55.9995C50.2387 55.9995 52.2857 55.1795 53.8607 53.8265C53.2567 51.4425 50.8647 50.5215 47.9997 50.5215C45.1347 50.5215 42.7427 51.4425 42.1387 53.8265C43.7137 55.1795 45.7607 55.9995 47.9997 55.9995Z" fill="#2455CF"/>
<path d="M48 49.3477C49.9452 49.3477 51.522 47.7709 51.522 45.8257C51.522 43.8806 49.9452 42.3037 48 42.3037C46.0549 42.3037 44.478 43.8806 44.478 45.8257C44.478 47.7709 46.0549 49.3477 48 49.3477Z" fill="white"/>
</svg>
