<svg width="64" height="64" viewBox="0 0 64 64" fill="none" xmlns="http://www.w3.org/2000/svg">
<rect width="64" height="64" fill="white"/>
<path d="M50.5004 11.5998C38.1004 8.1998 25.8004 8.1998 13.4004 11.5998C12.5004 11.7998 11.9004 12.5998 11.9004 13.4998V40.4998C11.9004 44.3998 14.2004 47.9998 17.8004 49.5998L32.0004 55.9998L46.1004 49.6998C49.7004 48.0998 52.0004 44.4998 52.0004 40.5998V13.5998C52.0004 12.5998 51.4004 11.7998 50.5004 11.5998Z" fill="#BDCCF1"/>
<path d="M32 14.7998C27.4 14.7998 22.7 15.2998 18 16.3998V40.2998C18 41.8998 18.9 43.2998 20.4 43.8998L32 49.1998L43.6 43.9998C45 43.3998 46 41.8998 46 40.3998V16.3998C41.3 15.2998 36.6 14.7998 32 14.7998Z" fill="#2455CF"/>
<path d="M26.3008 25.2998L37.7008 36.6998" stroke="white" stroke-width="3" stroke-miterlimit="10"/>
<path d="M37.7008 25.2998L26.3008 36.6998" stroke="white" stroke-width="3" stroke-miterlimit="10"/>
</svg>
