<svg width="32" height="32" viewBox="0 0 32 32" fill="none" xmlns="http://www.w3.org/2000/svg">
<path d="M27.5489 14.3364L30.5798 12.5864L26.2465 5.08089L23.2148 6.8313C22.346 6.14689 21.3772 5.58298 20.3334 5.16522V1.66699H11.6668V5.16522C10.6231 5.58298 9.65428 6.14689 8.78554 6.8313L5.75374 5.08089L1.42041 12.5864L4.45136 14.3364C4.37364 14.8803 4.33348 15.4359 4.33348 16.0003C4.33348 16.5648 4.37364 17.1204 4.45137 17.6643L1.42042 19.4143L5.75376 26.9197L8.78554 25.1693C9.65428 25.8537 10.6231 26.4177 11.6668 26.8355V30.3336H20.3334V26.8355C21.3772 26.4177 22.346 25.8537 23.2148 25.1693L26.2465 26.9197L30.5798 19.4143L27.5489 17.6643C27.6266 17.1204 27.6668 16.5648 27.6668 16.0003C27.6668 15.4359 27.6266 14.8803 27.5489 14.3364Z" fill="#5B88F8"/>
<path fill-rule="evenodd" clip-rule="evenodd" d="M14.6668 22.5335V17.3335H9.4668C9.99704 19.9456 12.0546 22.0032 14.6668 22.5335ZM17.3335 22.5335C19.9456 22.0032 22.0032 19.9456 22.5335 17.3335H17.3335V22.5335ZM22.5335 14.6668C22.0032 12.0546 19.9456 9.99704 17.3335 9.4668V14.6668H22.5335ZM14.6668 9.4668C12.0546 9.99704 9.99704 12.0546 9.4668 14.6668H14.6668V9.4668Z" fill="white"/>
</svg>
