<svg width="127" height="41" viewBox="0 0 127 41" fill="none" xmlns="http://www.w3.org/2000/svg">
<path d="M0 41L20 0V30L0 41Z" fill="#2455CF"/>
<path d="M40 41L20 0V30L40 41Z" fill="#497BF7"/>
<path d="M20 37L13.9766 33.3086L20 30L26 33.2969L20 37Z" fill="#E88D15"/>
<path d="M26 33.2969L20 37V30L26 33.2969Z" fill="#FAA73A"/>
<path d="M49.846 28L54.158 13.656H58.052L62.386 28H58.954L57.238 21.312C57.018 20.5347 56.82 19.772 56.644 19.024C56.4827 18.276 56.2993 17.506 56.094 16.714H56.006C55.786 17.506 55.588 18.276 55.412 19.024C55.236 19.772 55.0453 20.5347 54.84 21.312L53.146 28H49.846ZM65.0186 28V13.656H70.1886C71.2006 13.656 72.1246 13.7953 72.9606 14.074C73.7966 14.338 74.4639 14.7927 74.9626 15.438C75.4613 16.0833 75.7106 16.978 75.7106 18.122C75.7106 19.178 75.4759 20.0507 75.0066 20.74C74.5519 21.4147 73.9359 21.9207 73.1586 22.258L76.4146 28H72.7846L70.0346 22.83H68.2526V28H65.0186ZM68.2526 20.256H69.9246C70.7753 20.256 71.4206 20.08 71.8606 19.728C72.3153 19.3613 72.5426 18.826 72.5426 18.122C72.5426 17.418 72.3153 16.9267 71.8606 16.648C71.4206 16.3693 70.7753 16.23 69.9246 16.23H68.2526V20.256ZM79.6108 28V13.656H84.7808C85.7928 13.656 86.7168 13.7953 87.5528 14.074C88.3888 14.338 89.0561 14.7927 89.5548 15.438C90.0535 16.0833 90.3028 16.978 90.3028 18.122C90.3028 19.178 90.0681 20.0507 89.5988 20.74C89.1441 21.4147 88.5281 21.9207 87.7508 22.258L91.0068 28H87.3768L84.6268 22.83H82.8448V28H79.6108ZM82.8448 20.256H84.5168C85.3675 20.256 86.0128 20.08 86.4528 19.728C86.9075 19.3613 87.1348 18.826 87.1348 18.122C87.1348 17.418 86.9075 16.9267 86.4528 16.648C86.0128 16.3693 85.3675 16.23 84.5168 16.23H82.8448V20.256ZM100.033 28.264C98.7423 28.264 97.6057 27.9633 96.623 27.362C95.655 26.7607 94.8923 25.9027 94.335 24.788C93.7923 23.6587 93.521 22.3167 93.521 20.762C93.521 19.1927 93.7923 17.8653 94.335 16.78C94.8923 15.68 95.655 14.844 96.623 14.272C97.6057 13.6853 98.7423 13.392 100.033 13.392C101.324 13.392 102.453 13.6853 103.421 14.272C104.404 14.844 105.166 15.68 105.709 16.78C106.266 17.88 106.545 19.2073 106.545 20.762C106.545 22.3167 106.266 23.6587 105.709 24.788C105.166 25.9027 104.404 26.7607 103.421 27.362C102.453 27.9633 101.324 28.264 100.033 28.264ZM100.033 25.47C101.016 25.47 101.793 25.0447 102.365 24.194C102.937 23.3433 103.223 22.1993 103.223 20.762C103.223 19.3247 102.937 18.2027 102.365 17.396C101.793 16.5893 101.016 16.186 100.033 16.186C99.0503 16.186 98.273 16.5893 97.701 17.396C97.129 18.2027 96.843 19.3247 96.843 20.762C96.843 22.1993 97.129 23.3433 97.701 24.194C98.273 25.0447 99.0503 25.47 100.033 25.47ZM111.618 28L108.956 13.656H112.278L113.268 20.366C113.356 21.114 113.451 21.8693 113.554 22.632C113.657 23.38 113.752 24.1353 113.84 24.898H113.928C114.075 24.1353 114.214 23.38 114.346 22.632C114.493 21.8693 114.639 21.114 114.786 20.366L116.326 13.656H119.076L120.616 20.366C120.763 21.0847 120.902 21.8253 121.034 22.588C121.181 23.3507 121.327 24.1207 121.474 24.898H121.562C121.665 24.1207 121.76 23.358 121.848 22.61C121.951 21.8473 122.053 21.0993 122.156 20.366L123.146 13.656H126.248L123.696 28H119.626L118.218 21.488C118.101 20.9307 117.991 20.3733 117.888 19.816C117.8 19.244 117.719 18.694 117.646 18.166H117.558C117.47 18.694 117.375 19.244 117.272 19.816C117.184 20.3733 117.081 20.9307 116.964 21.488L115.622 28H111.618Z" fill="#dadde1"/>
</svg>
