<svg width="78" height="16" viewBox="0 0 78 16" fill="none" xmlns="http://www.w3.org/2000/svg">
<path d="M0.846 15L5.158 0.656H9.052L13.386 15H9.954L8.238 8.312C8.018 7.53467 7.82 6.772 7.644 6.024C7.48267 5.276 7.29933 4.506 7.094 3.714H7.006C6.786 4.506 6.588 5.276 6.412 6.024C6.236 6.772 6.04533 7.53467 5.84 8.312L4.146 15H0.846ZM16.0186 15V0.656H21.1886C22.2006 0.656 23.1246 0.795333 23.9606 1.074C24.7966 1.338 25.4639 1.79267 25.9626 2.438C26.4613 3.08333 26.7106 3.978 26.7106 5.122C26.7106 6.178 26.4759 7.05067 26.0066 7.74C25.5519 8.41467 24.9359 8.92067 24.1586 9.258L27.4146 15H23.7846L21.0346 9.83H19.2526V15H16.0186ZM19.2526 7.256H20.9246C21.7753 7.256 22.4206 7.08 22.8606 6.728C23.3153 6.36133 23.5426 5.826 23.5426 5.122C23.5426 4.418 23.3153 3.92667 22.8606 3.648C22.4206 3.36933 21.7753 3.23 20.9246 3.23H19.2526V7.256ZM30.6108 15V0.656H35.7808C36.7928 0.656 37.7168 0.795333 38.5528 1.074C39.3888 1.338 40.0561 1.79267 40.5548 2.438C41.0535 3.08333 41.3028 3.978 41.3028 5.122C41.3028 6.178 41.0681 7.05067 40.5988 7.74C40.1441 8.41467 39.5281 8.92067 38.7508 9.258L42.0068 15H38.3768L35.6268 9.83H33.8448V15H30.6108ZM33.8448 7.256H35.5168C36.3675 7.256 37.0128 7.08 37.4528 6.728C37.9075 6.36133 38.1348 5.826 38.1348 5.122C38.1348 4.418 37.9075 3.92667 37.4528 3.648C37.0128 3.36933 36.3675 3.23 35.5168 3.23H33.8448V7.256ZM51.033 15.264C49.7423 15.264 48.6057 14.9633 47.623 14.362C46.655 13.7607 45.8923 12.9027 45.335 11.788C44.7923 10.6587 44.521 9.31667 44.521 7.762C44.521 6.19267 44.7923 4.86533 45.335 3.78C45.8923 2.68 46.655 1.844 47.623 1.272C48.6057 0.685333 49.7423 0.391999 51.033 0.391999C52.3237 0.391999 53.453 0.685333 54.421 1.272C55.4037 1.844 56.1663 2.68 56.709 3.78C57.2663 4.88 57.545 6.20733 57.545 7.762C57.545 9.31667 57.2663 10.6587 56.709 11.788C56.1663 12.9027 55.4037 13.7607 54.421 14.362C53.453 14.9633 52.3237 15.264 51.033 15.264ZM51.033 12.47C52.0157 12.47 52.793 12.0447 53.365 11.194C53.937 10.3433 54.223 9.19933 54.223 7.762C54.223 6.32467 53.937 5.20267 53.365 4.396C52.793 3.58933 52.0157 3.186 51.033 3.186C50.0503 3.186 49.273 3.58933 48.701 4.396C48.129 5.20267 47.843 6.32467 47.843 7.762C47.843 9.19933 48.129 10.3433 48.701 11.194C49.273 12.0447 50.0503 12.47 51.033 12.47ZM62.618 15L59.956 0.656H63.278L64.268 7.366C64.356 8.114 64.4514 8.86933 64.554 9.632C64.6567 10.38 64.752 11.1353 64.84 11.898H64.928C65.0747 11.1353 65.214 10.38 65.346 9.632C65.4927 8.86933 65.6394 8.114 65.786 7.366L67.326 0.656H70.076L71.616 7.366C71.7627 8.08467 71.902 8.82533 72.034 9.588C72.1807 10.3507 72.3274 11.1207 72.474 11.898H72.562C72.6647 11.1207 72.76 10.358 72.848 9.61C72.9507 8.84733 73.0534 8.09933 73.156 7.366L74.146 0.656H77.248L74.696 15H70.626L69.218 8.488C69.1007 7.93067 68.9907 7.37333 68.888 6.816C68.8 6.244 68.7194 5.694 68.646 5.166H68.558C68.47 5.694 68.3747 6.244 68.272 6.816C68.184 7.37333 68.0814 7.93067 67.964 8.488L66.622 15H62.618Z" fill="#222E51"/>
</svg>
