<svg width="32" height="32" viewBox="0 0 32 32" fill="none" xmlns="http://www.w3.org/2000/svg">
<path fill-rule="evenodd" clip-rule="evenodd" d="M15.2428 29.1385C15.2429 29.1386 15.243 29.1387 15.9997 28.485C16.7564 29.1387 16.7569 29.1381 16.7572 29.1378L15.9997 30.0145L15.2428 29.1385ZM15.2428 29.1385L15.9997 28.485L16.7572 29.1378L16.7644 29.1294L16.7853 29.1049L16.8642 29.0123C16.9326 28.9315 17.0321 28.8133 17.1581 28.6611C17.41 28.3569 17.7685 27.9169 18.1982 27.3695C19.0566 26.2761 20.2029 24.7491 21.351 23.0185C22.4973 21.2909 23.6577 19.3419 24.5349 17.4061C25.404 15.4879 26.036 13.4949 26.036 11.7033C26.036 6.16039 21.5425 1.66699 15.9997 1.66699C10.4568 1.66699 5.96338 6.16039 5.96338 11.7033C5.96338 13.4949 6.59537 15.4879 7.46443 17.4061C8.34155 19.3419 9.50205 21.2909 10.6482 23.0185C11.7965 24.7491 12.9427 26.2761 13.8012 27.3695C14.2308 27.9169 14.5893 28.3569 14.8413 28.6611C14.9673 28.8133 15.0666 28.9315 15.1352 29.0123L15.214 29.1049L15.2349 29.1294L15.2428 29.1385Z" fill="#5B88F8"/>
<path d="M19.0886 15.3312H12.9106V9.15332H19.0886V15.3312Z" fill="white"/>
</svg>
