<svg width="64" height="64" viewBox="0 0 64 64" fill="none" xmlns="http://www.w3.org/2000/svg">
<path d="M8.39954 55.4004L12.7995 52.6004C12.9995 52.5004 13.2995 52.6004 13.2995 52.9004L13.0995 54.5004C13.0995 54.8004 13.2995 55.0004 13.5995 54.9004L20.8995 52.7004C23.9995 51.8004 26.0995 48.9004 26.0995 45.7004C26.0995 41.7004 22.7995 38.4004 18.7995 38.4004H18.6995C15.4995 38.4004 12.6995 40.5004 11.7995 43.5004L7.89954 54.9004C7.69954 55.3004 8.09954 55.6004 8.39954 55.4004Z" fill="#BDCCF1"/>
<path d="M29.5994 24.6004L22.8994 24.4004C21.6994 24.4004 20.5994 24.8004 19.6994 25.5004L11.8994 32.3004L20.7994 35.0004" fill="#2455CF"/>
<path d="M39.9992 35L40.1992 41.7C40.1992 42.9 39.7992 44 39.0992 44.9L32.2992 52.7L29.6992 44" fill="#2455CF"/>
<path d="M29.6996 44.0002C32.1996 43.1002 38.4996 40.6002 43.9996 35.0002C57.0996 22.0002 56.0996 8.5002 56.0996 8.5002C56.0996 8.5002 42.6996 7.5002 29.5996 20.5002C22.4996 27.6002 21.4996 32.4002 20.5996 34.8002L29.6996 44.0002Z" fill="#5B88F8"/>
<path d="M41.7 27.1998C44.0196 27.1998 45.9 25.3194 45.9 22.9998C45.9 20.6802 44.0196 18.7998 41.7 18.7998C39.3804 18.7998 37.5 20.6802 37.5 22.9998C37.5 25.3194 39.3804 27.1998 41.7 27.1998Z" fill="white"/>
<path d="M22.8994 43.1998L21.3994 41.6998L31.1994 30.3998C31.9994 29.5998 33.3994 29.5998 34.1994 30.3998C34.9994 31.1998 34.9994 32.5998 34.1994 33.3998L22.8994 43.1998Z" fill="#2455CF"/>
</svg>
