<svg width="64" height="64" viewBox="0 0 64 64" fill="none" xmlns="http://www.w3.org/2000/svg">
<path d="M31.2002 43.9002L20.3002 37.6002C20.0002 37.4002 20.0002 36.9002 20.3002 36.7002L31.1002 30.5002C31.7002 30.1002 32.5002 30.1002 33.2002 30.5002L44.1002 36.8002C44.4002 37.0002 44.4002 37.5002 44.1002 37.7002L33.3002 43.9002C32.6002 44.3002 31.8002 44.3002 31.2002 43.9002Z" fill="#BDCCF0"/>
<path d="M31.2002 38.7L20.3002 32.4C20.0002 32.2 20.0002 31.7 20.3002 31.5L31.1002 25.3C31.7002 24.9 32.5002 24.9 33.2002 25.3L44.1002 31.6C44.4002 31.8 44.4002 32.3 44.1002 32.5L33.3002 38.7C32.6002 39.1 31.8002 39.1 31.2002 38.7Z" fill="#5B88F8"/>
<path d="M31.2002 33.4998L20.3002 27.1998C20.0002 26.9998 20.0002 26.4998 20.3002 26.2998L31.1002 20.0998C31.7002 19.6998 32.5002 19.6998 33.2002 20.0998L44.1002 26.3998C44.4002 26.5998 44.4002 27.0998 44.1002 27.2998L33.3002 33.4998C32.6002 33.8998 31.8002 33.8998 31.2002 33.4998Z" fill="#2455CF"/>
<path d="M32.2002 47V53.5" stroke="#BDCCF0" stroke-width="3" stroke-miterlimit="10"/>
<path d="M27.7002 52.2002L32.2002 60.0002L36.7002 52.2002H27.7002Z" fill="#BDCCF0"/>
<path d="M32.2002 17V10.5" stroke="#BDCCF0" stroke-width="3" stroke-miterlimit="10"/>
<path d="M36.7002 11.8L32.2002 4L27.7002 11.8H36.7002Z" fill="#BDCCF0"/>
<path d="M45.2002 39.5L50.9002 42.8" stroke="#BDCCF0" stroke-width="3" stroke-miterlimit="10"/>
<path d="M47.5002 46.0002H56.4002L52.0002 38.2002L47.5002 46.0002Z" fill="#BDCCF0"/>
<path d="M19.2 24.5002L13.5 21.2002" stroke="#BDCCF0" stroke-width="3" stroke-miterlimit="10"/>
<path d="M16.9 18H8L12.4 25.8L16.9 18Z" fill="#BDCCF0"/>
<path d="M45.2002 24.5002L50.9002 21.2002" stroke="#BDCCF0" stroke-width="3" stroke-miterlimit="10"/>
<path d="M52.0002 25.8L56.4002 18H47.5002L52.0002 25.8Z" fill="#BDCCF0"/>
<path d="M19.2 39.5L13.5 42.8" stroke="#BDCCF0" stroke-width="3" stroke-miterlimit="10"/>
<path d="M12.4 38.2002L8 46.0002H16.9L12.4 38.2002Z" fill="#BDCCF0"/>
</svg>
