<svg width="64" height="64" viewBox="0 0 64 64" fill="none" xmlns="http://www.w3.org/2000/svg">
<path d="M47 31.7002C50.3137 31.7002 53 29.0139 53 25.7002C53 22.3865 50.3137 19.7002 47 19.7002C43.6863 19.7002 41 22.3865 41 25.7002C41 29.0139 43.6863 31.7002 47 31.7002Z" fill="#BDCCF0"/>
<path d="M57 43.4C57 42.8 57 41.8 57 40.7C57 39.7 56.8 38.7 56.3 37.8C54.6 35.1 51.1 34 47 34C42.9 34 39.4 35.1 37.7 37.8C37.2 38.7 37 39.7 37 40.7C37 42 37 49.1 37 51.8L57 43.4Z" fill="#BDCCF0"/>
<path d="M17 31.7002C20.3137 31.7002 23 29.0139 23 25.7002C23 22.3865 20.3137 19.7002 17 19.7002C13.6863 19.7002 11 22.3865 11 25.7002C11 29.0139 13.6863 31.7002 17 31.7002Z" fill="#5B88F8"/>
<path d="M17 34C12.9 34 9.4 35.1 7.7 37.8C7.2 38.7 7 39.7 7 40.7C7 41.7 7 42.7 7 43.4L27 51.9C27 49.1 27 42.1 27 40.8C27 39.8 26.8 38.8 26.3 37.9C24.6 35.1 21.1 34 17 34Z" fill="#5B88F8"/>
<path d="M31.9996 28.0998C36.3627 28.0998 39.8996 24.5629 39.8996 20.1998C39.8996 15.8368 36.3627 12.2998 31.9996 12.2998C27.6366 12.2998 24.0996 15.8368 24.0996 20.1998C24.0996 24.5629 27.6366 28.0998 31.9996 28.0998Z" fill="#2455CF"/>
<path d="M32.0004 54.0004L45.1004 48.5004C45.1004 46.1004 45.1004 41.4004 45.1004 39.8004C45.1004 38.3004 44.7004 36.8004 43.9004 35.5004C41.6004 32.2004 37.2004 30.9004 32.0004 30.9004C26.9004 30.9004 22.4004 32.2004 20.1004 35.5004C19.2004 36.7004 18.9004 38.3004 18.9004 39.8004C18.9004 41.4004 18.9004 46.0004 18.9004 48.5004L32.0004 54.0004Z" fill="#2455CF"/>
</svg>
