<svg width="24" height="24" viewBox="0 0 24 24" fill="none" xmlns="http://www.w3.org/2000/svg">
<path d="M23.32 6.43981C23.3912 6.38066 23.4445 6.30293 23.4742 6.21527C23.5038 6.12761 23.5085 6.03345 23.4877 5.94327C23.467 5.85309 23.4216 5.77044 23.3567 5.7045C23.2918 5.63857 23.2099 5.59194 23.12 5.56981L22.33 5.37981C22.2573 5.36152 22.1897 5.32676 22.1325 5.27821C22.0752 5.22967 22.0299 5.16863 22 5.09981C21.9681 5.03265 21.9515 4.9592 21.9515 4.88481C21.9515 4.81042 21.9681 4.73697 22 4.66981L22.45 3.77981C22.4928 3.69267 22.5093 3.59497 22.4975 3.49862C22.4857 3.40228 22.4461 3.31145 22.3835 3.23723C22.321 3.16301 22.2382 3.1086 22.1452 3.08065C22.0522 3.05269 21.9532 3.0524 21.86 3.07981L19.86 3.63981C19.7864 3.66011 19.7089 3.66254 19.6341 3.64689C19.5593 3.63123 19.4894 3.59795 19.43 3.54981C18.6872 2.99267 17.8039 2.6534 16.8791 2.57001C15.9543 2.48662 15.0245 2.66241 14.194 3.07767C13.3634 3.49294 12.665 4.13127 12.1768 4.92115C11.6886 5.71103 11.43 6.62125 11.43 7.54981V7.90981C11.4305 7.97123 11.4083 8.03066 11.3677 8.07677C11.3271 8.12288 11.271 8.15244 11.21 8.15981C8.40004 8.48981 5.71004 7.05981 2.81004 3.71981C2.74888 3.64762 2.66849 3.59426 2.57822 3.56594C2.48794 3.53762 2.39148 3.53549 2.30004 3.55981C2.21294 3.59642 2.13828 3.65743 2.08505 3.73549C2.03182 3.81356 2.0023 3.90535 2.00004 3.99981C1.59478 5.6448 1.75687 7.37845 2.46004 8.91981C2.48192 8.95964 2.4934 9.00436 2.4934 9.04981C2.4934 9.09526 2.48192 9.13997 2.46004 9.17981C2.43315 9.21956 2.39495 9.25034 2.35039 9.26817C2.30582 9.286 2.25693 9.29005 2.21004 9.27981L1.08004 9.05981C1.00009 9.04896 0.918713 9.05687 0.842346 9.0829C0.765979 9.10894 0.696717 9.15238 0.640041 9.20981C0.585508 9.2679 0.545344 9.33795 0.522769 9.41436C0.500193 9.49077 0.495834 9.57141 0.510041 9.64981C0.59638 10.4173 0.854215 11.1555 1.26446 11.8098C1.67471 12.4641 2.22686 13.0178 2.88004 13.4298C2.91917 13.4535 2.95105 13.4875 2.97221 13.528C2.99337 13.5686 3.00299 13.6142 3.00004 13.6598C2.99955 13.7072 2.98504 13.7534 2.95835 13.7925C2.93165 13.8317 2.89397 13.862 2.85004 13.8798L2.31004 14.0898C2.18215 14.1458 2.08153 14.25 2.03004 14.3798C2.00308 14.443 1.98919 14.5111 1.98919 14.5798C1.98919 14.6485 2.00308 14.7166 2.03004 14.7798C2.32313 15.4211 2.7674 15.9818 3.32474 16.4137C3.88208 16.8457 4.53587 17.136 5.23004 17.2598C5.2794 17.2745 5.32351 17.3031 5.35717 17.3421C5.39084 17.381 5.41265 17.4288 5.42004 17.4798C5.42498 17.5333 5.41321 17.5871 5.38635 17.6336C5.35949 17.6802 5.31885 17.7173 5.27004 17.7398C3.91544 18.2945 2.46376 18.5733 1.00004 18.5598C0.867432 18.5333 0.72972 18.5605 0.617198 18.6355C0.504676 18.7106 0.426562 18.8272 0.400041 18.9598C0.373519 19.0924 0.400762 19.2301 0.475777 19.3426C0.550791 19.4552 0.667432 19.5333 0.800041 19.5598C3.34618 20.7721 6.12068 21.4299 8.94004 21.4898C11.4193 21.5264 13.8543 20.8307 15.94 19.4898C17.6565 18.3461 19.0628 16.7949 20.0331 14.9747C21.0033 13.1546 21.5073 11.1224 21.5 9.05981V8.18981C21.5 8.11708 21.5161 8.04525 21.5472 7.97952C21.5783 7.91379 21.6237 7.85582 21.68 7.80981L23.32 6.43981Z" fill="#5B88F8"/>
</svg>
